<mxfile host="app.diagrams.net" modified="2023-06-21T18:45:21.265Z" agent="Mozilla/5.0 (Windows NT 10.0; Win64; x64) AppleWebKit/537.36 (KHTML, like Gecko) Chrome/114.0.0.0 Safari/537.36" etag="OSUwmsHN59_3Y73ppBXE" version="21.5.0" type="device">
  <diagram id="C5RBs43oDa-KdzZeNtuy" name="Page-1">
    <mxGraphModel dx="1760" dy="854" grid="1" gridSize="10" guides="1" tooltips="1" connect="1" arrows="1" fold="1" page="1" pageScale="1" pageWidth="827" pageHeight="1169" math="0" shadow="0">
      <root>
        <mxCell id="WIyWlLk6GJQsqaUBKTNV-0" />
        <mxCell id="WIyWlLk6GJQsqaUBKTNV-1" parent="WIyWlLk6GJQsqaUBKTNV-0" />
        <mxCell id="WIyWlLk6GJQsqaUBKTNV-2" value="" style="rounded=0;html=1;jettySize=auto;orthogonalLoop=1;fontSize=11;endArrow=block;endFill=0;endSize=8;strokeWidth=1;shadow=0;labelBackgroundColor=none;edgeStyle=orthogonalEdgeStyle;" parent="WIyWlLk6GJQsqaUBKTNV-1" source="WIyWlLk6GJQsqaUBKTNV-3" target="WIyWlLk6GJQsqaUBKTNV-6" edge="1">
          <mxGeometry relative="1" as="geometry" />
        </mxCell>
        <mxCell id="WIyWlLk6GJQsqaUBKTNV-3" value="Inicijalizacija" style="rounded=1;whiteSpace=wrap;html=1;fontSize=12;glass=0;strokeWidth=1;shadow=0;" parent="WIyWlLk6GJQsqaUBKTNV-1" vertex="1">
          <mxGeometry x="260" width="120" height="40" as="geometry" />
        </mxCell>
        <mxCell id="WIyWlLk6GJQsqaUBKTNV-4" value="Yes" style="rounded=0;html=1;jettySize=auto;orthogonalLoop=1;fontSize=11;endArrow=block;endFill=0;endSize=8;strokeWidth=1;shadow=0;labelBackgroundColor=none;edgeStyle=orthogonalEdgeStyle;" parent="WIyWlLk6GJQsqaUBKTNV-1" source="WIyWlLk6GJQsqaUBKTNV-6" target="WIyWlLk6GJQsqaUBKTNV-10" edge="1">
          <mxGeometry y="20" relative="1" as="geometry">
            <mxPoint as="offset" />
          </mxGeometry>
        </mxCell>
        <mxCell id="WIyWlLk6GJQsqaUBKTNV-6" value="ÄŒekanje na&amp;nbsp; &quot;START&quot; preko BLE" style="rhombus;whiteSpace=wrap;html=1;shadow=0;fontFamily=Helvetica;fontSize=12;align=center;strokeWidth=1;spacing=6;spacingTop=-4;" parent="WIyWlLk6GJQsqaUBKTNV-1" vertex="1">
          <mxGeometry x="250" y="130" width="140" height="120" as="geometry" />
        </mxCell>
        <mxCell id="WIyWlLk6GJQsqaUBKTNV-8" value="No" style="rounded=0;html=1;jettySize=auto;orthogonalLoop=1;fontSize=11;endArrow=block;endFill=0;endSize=8;strokeWidth=1;shadow=0;labelBackgroundColor=none;edgeStyle=orthogonalEdgeStyle;" parent="WIyWlLk6GJQsqaUBKTNV-1" source="WIyWlLk6GJQsqaUBKTNV-10" target="WIyWlLk6GJQsqaUBKTNV-11" edge="1">
          <mxGeometry x="0.3333" y="20" relative="1" as="geometry">
            <mxPoint as="offset" />
          </mxGeometry>
        </mxCell>
        <mxCell id="WIyWlLk6GJQsqaUBKTNV-9" value="Yes" style="edgeStyle=orthogonalEdgeStyle;rounded=0;html=1;jettySize=auto;orthogonalLoop=1;fontSize=11;endArrow=block;endFill=0;endSize=8;strokeWidth=1;shadow=0;labelBackgroundColor=none;" parent="WIyWlLk6GJQsqaUBKTNV-1" source="WIyWlLk6GJQsqaUBKTNV-10" target="WIyWlLk6GJQsqaUBKTNV-12" edge="1">
          <mxGeometry x="0.0159" y="10" relative="1" as="geometry">
            <mxPoint as="offset" />
          </mxGeometry>
        </mxCell>
        <mxCell id="WIyWlLk6GJQsqaUBKTNV-10" value="&quot;STOP&quot; preko BLE?" style="rhombus;whiteSpace=wrap;html=1;shadow=0;fontFamily=Helvetica;fontSize=12;align=center;strokeWidth=1;spacing=6;spacingTop=-4;" parent="WIyWlLk6GJQsqaUBKTNV-1" vertex="1">
          <mxGeometry x="255" y="290" width="130" height="100" as="geometry" />
        </mxCell>
        <mxCell id="O7lvhPyS7myMmypCgbb_-9" value="" style="edgeStyle=orthogonalEdgeStyle;rounded=0;orthogonalLoop=1;jettySize=auto;html=1;" edge="1" parent="WIyWlLk6GJQsqaUBKTNV-1" source="WIyWlLk6GJQsqaUBKTNV-11" target="O7lvhPyS7myMmypCgbb_-4">
          <mxGeometry relative="1" as="geometry" />
        </mxCell>
        <mxCell id="WIyWlLk6GJQsqaUBKTNV-11" value="Izmeri udaljenost svih senzora" style="rounded=1;whiteSpace=wrap;html=1;fontSize=12;glass=0;strokeWidth=1;shadow=0;" parent="WIyWlLk6GJQsqaUBKTNV-1" vertex="1">
          <mxGeometry x="260" y="440" width="120" height="40" as="geometry" />
        </mxCell>
        <mxCell id="O7lvhPyS7myMmypCgbb_-2" style="edgeStyle=orthogonalEdgeStyle;rounded=0;orthogonalLoop=1;jettySize=auto;html=1;" edge="1" parent="WIyWlLk6GJQsqaUBKTNV-1" source="WIyWlLk6GJQsqaUBKTNV-12">
          <mxGeometry relative="1" as="geometry">
            <mxPoint x="320" y="70" as="targetPoint" />
            <Array as="points">
              <mxPoint x="490" y="70" />
            </Array>
          </mxGeometry>
        </mxCell>
        <mxCell id="WIyWlLk6GJQsqaUBKTNV-12" value="Zaustavljanje" style="rounded=1;whiteSpace=wrap;html=1;fontSize=12;glass=0;strokeWidth=1;shadow=0;" parent="WIyWlLk6GJQsqaUBKTNV-1" vertex="1">
          <mxGeometry x="430" y="320" width="120" height="40" as="geometry" />
        </mxCell>
        <mxCell id="O7lvhPyS7myMmypCgbb_-1" value="No" style="rounded=0;html=1;jettySize=auto;orthogonalLoop=1;fontSize=11;endArrow=block;endFill=0;endSize=8;strokeWidth=1;shadow=0;labelBackgroundColor=none;edgeStyle=orthogonalEdgeStyle;exitX=1;exitY=0.5;exitDx=0;exitDy=0;" edge="1" parent="WIyWlLk6GJQsqaUBKTNV-1" source="WIyWlLk6GJQsqaUBKTNV-6">
          <mxGeometry x="-0.3" y="10" relative="1" as="geometry">
            <mxPoint as="offset" />
            <mxPoint x="430" y="170" as="sourcePoint" />
            <mxPoint x="320" y="100" as="targetPoint" />
            <Array as="points">
              <mxPoint x="410" y="190" />
              <mxPoint x="410" y="100" />
              <mxPoint x="321" y="100" />
            </Array>
          </mxGeometry>
        </mxCell>
        <mxCell id="O7lvhPyS7myMmypCgbb_-4" value="Distanca levo&amp;nbsp;&lt;br&gt;&amp;gt; 20cm" style="rhombus;whiteSpace=wrap;html=1;shadow=0;fontFamily=Helvetica;fontSize=12;align=center;strokeWidth=1;spacing=6;spacingTop=-4;" vertex="1" parent="WIyWlLk6GJQsqaUBKTNV-1">
          <mxGeometry x="255" y="520" width="130" height="100" as="geometry" />
        </mxCell>
        <mxCell id="O7lvhPyS7myMmypCgbb_-7" value="No" style="rounded=0;html=1;jettySize=auto;orthogonalLoop=1;fontSize=11;endArrow=block;endFill=0;endSize=8;strokeWidth=1;shadow=0;labelBackgroundColor=none;edgeStyle=orthogonalEdgeStyle;entryX=0.5;entryY=0;entryDx=0;entryDy=0;" edge="1" parent="WIyWlLk6GJQsqaUBKTNV-1">
          <mxGeometry x="0.057" y="20" relative="1" as="geometry">
            <mxPoint y="-2" as="offset" />
            <mxPoint x="319.63" y="620" as="sourcePoint" />
            <mxPoint x="319.88" y="660" as="targetPoint" />
          </mxGeometry>
        </mxCell>
        <mxCell id="O7lvhPyS7myMmypCgbb_-13" style="edgeStyle=orthogonalEdgeStyle;rounded=0;orthogonalLoop=1;jettySize=auto;html=1;" edge="1" parent="WIyWlLk6GJQsqaUBKTNV-1" source="O7lvhPyS7myMmypCgbb_-11">
          <mxGeometry relative="1" as="geometry">
            <mxPoint x="160" y="260" as="targetPoint" />
            <Array as="points">
              <mxPoint x="160" y="300" />
              <mxPoint x="160" y="300" />
            </Array>
          </mxGeometry>
        </mxCell>
        <mxCell id="O7lvhPyS7myMmypCgbb_-11" value="Skreni levo" style="rounded=1;whiteSpace=wrap;html=1;fontSize=12;glass=0;strokeWidth=1;shadow=0;" vertex="1" parent="WIyWlLk6GJQsqaUBKTNV-1">
          <mxGeometry x="100" y="550" width="120" height="40" as="geometry" />
        </mxCell>
        <mxCell id="O7lvhPyS7myMmypCgbb_-12" value="Yes" style="edgeStyle=orthogonalEdgeStyle;rounded=0;html=1;jettySize=auto;orthogonalLoop=1;fontSize=11;endArrow=block;endFill=0;endSize=8;strokeWidth=1;shadow=0;labelBackgroundColor=none;" edge="1" parent="WIyWlLk6GJQsqaUBKTNV-1">
          <mxGeometry x="0.0159" y="10" relative="1" as="geometry">
            <mxPoint as="offset" />
            <mxPoint x="244.98" y="569.82" as="sourcePoint" />
            <mxPoint x="220" y="570" as="targetPoint" />
            <Array as="points">
              <mxPoint x="254.98" y="569.82" />
              <mxPoint x="254.98" y="569.82" />
            </Array>
          </mxGeometry>
        </mxCell>
        <mxCell id="O7lvhPyS7myMmypCgbb_-14" value="Distanca pravo &lt;br&gt;&amp;gt; 20cm" style="rhombus;whiteSpace=wrap;html=1;shadow=0;fontFamily=Helvetica;fontSize=12;align=center;strokeWidth=1;spacing=6;spacingTop=-4;" vertex="1" parent="WIyWlLk6GJQsqaUBKTNV-1">
          <mxGeometry x="255" y="660" width="130" height="100" as="geometry" />
        </mxCell>
        <mxCell id="O7lvhPyS7myMmypCgbb_-21" style="edgeStyle=orthogonalEdgeStyle;rounded=0;orthogonalLoop=1;jettySize=auto;html=1;" edge="1" parent="WIyWlLk6GJQsqaUBKTNV-1" source="O7lvhPyS7myMmypCgbb_-15">
          <mxGeometry relative="1" as="geometry">
            <mxPoint x="70" y="260" as="targetPoint" />
          </mxGeometry>
        </mxCell>
        <mxCell id="O7lvhPyS7myMmypCgbb_-15" value="Idi pravo" style="rounded=1;whiteSpace=wrap;html=1;fontSize=12;glass=0;strokeWidth=1;shadow=0;" vertex="1" parent="WIyWlLk6GJQsqaUBKTNV-1">
          <mxGeometry x="100" y="690" width="120" height="40" as="geometry" />
        </mxCell>
        <mxCell id="O7lvhPyS7myMmypCgbb_-16" value="Yes" style="edgeStyle=orthogonalEdgeStyle;rounded=0;html=1;jettySize=auto;orthogonalLoop=1;fontSize=11;endArrow=block;endFill=0;endSize=8;strokeWidth=1;shadow=0;labelBackgroundColor=none;" edge="1" parent="WIyWlLk6GJQsqaUBKTNV-1">
          <mxGeometry x="0.0159" y="10" relative="1" as="geometry">
            <mxPoint as="offset" />
            <mxPoint x="244.98" y="709.82" as="sourcePoint" />
            <mxPoint x="220" y="710" as="targetPoint" />
            <Array as="points">
              <mxPoint x="254.98000000000002" y="709.82" />
              <mxPoint x="254.98000000000002" y="709.82" />
            </Array>
          </mxGeometry>
        </mxCell>
        <mxCell id="O7lvhPyS7myMmypCgbb_-17" value="No" style="rounded=0;html=1;jettySize=auto;orthogonalLoop=1;fontSize=11;endArrow=block;endFill=0;endSize=8;strokeWidth=1;shadow=0;labelBackgroundColor=none;edgeStyle=orthogonalEdgeStyle;entryX=0.5;entryY=0;entryDx=0;entryDy=0;" edge="1" parent="WIyWlLk6GJQsqaUBKTNV-1">
          <mxGeometry x="0.057" y="20" relative="1" as="geometry">
            <mxPoint y="-2" as="offset" />
            <mxPoint x="319.63" y="760" as="sourcePoint" />
            <mxPoint x="319.88" y="800" as="targetPoint" />
          </mxGeometry>
        </mxCell>
        <mxCell id="O7lvhPyS7myMmypCgbb_-18" value="Distanca desno&lt;br&gt;&amp;gt; 20cm" style="rhombus;whiteSpace=wrap;html=1;shadow=0;fontFamily=Helvetica;fontSize=12;align=center;strokeWidth=1;spacing=6;spacingTop=-4;" vertex="1" parent="WIyWlLk6GJQsqaUBKTNV-1">
          <mxGeometry x="255" y="800" width="130" height="100" as="geometry" />
        </mxCell>
        <mxCell id="O7lvhPyS7myMmypCgbb_-22" style="edgeStyle=orthogonalEdgeStyle;rounded=0;orthogonalLoop=1;jettySize=auto;html=1;" edge="1" parent="WIyWlLk6GJQsqaUBKTNV-1" source="O7lvhPyS7myMmypCgbb_-19">
          <mxGeometry relative="1" as="geometry">
            <mxPoint x="30" y="260" as="targetPoint" />
          </mxGeometry>
        </mxCell>
        <mxCell id="O7lvhPyS7myMmypCgbb_-19" value="Skreni desno" style="rounded=1;whiteSpace=wrap;html=1;fontSize=12;glass=0;strokeWidth=1;shadow=0;" vertex="1" parent="WIyWlLk6GJQsqaUBKTNV-1">
          <mxGeometry x="100" y="830" width="120" height="40" as="geometry" />
        </mxCell>
        <mxCell id="O7lvhPyS7myMmypCgbb_-20" value="Yes" style="edgeStyle=orthogonalEdgeStyle;rounded=0;html=1;jettySize=auto;orthogonalLoop=1;fontSize=11;endArrow=block;endFill=0;endSize=8;strokeWidth=1;shadow=0;labelBackgroundColor=none;" edge="1" parent="WIyWlLk6GJQsqaUBKTNV-1">
          <mxGeometry x="0.0159" y="10" relative="1" as="geometry">
            <mxPoint as="offset" />
            <mxPoint x="244.98" y="849.82" as="sourcePoint" />
            <mxPoint x="220" y="850" as="targetPoint" />
            <Array as="points">
              <mxPoint x="254.98000000000002" y="849.82" />
              <mxPoint x="254.98000000000002" y="849.82" />
            </Array>
          </mxGeometry>
        </mxCell>
        <mxCell id="O7lvhPyS7myMmypCgbb_-24" value="" style="endArrow=classic;html=1;rounded=0;" edge="1" parent="WIyWlLk6GJQsqaUBKTNV-1">
          <mxGeometry width="50" height="50" relative="1" as="geometry">
            <mxPoint x="30" y="260" as="sourcePoint" />
            <mxPoint x="320" y="260" as="targetPoint" />
          </mxGeometry>
        </mxCell>
        <mxCell id="O7lvhPyS7myMmypCgbb_-25" value="No" style="rounded=0;html=1;jettySize=auto;orthogonalLoop=1;fontSize=11;endArrow=block;endFill=0;endSize=8;strokeWidth=1;shadow=0;labelBackgroundColor=none;edgeStyle=orthogonalEdgeStyle;entryX=0.5;entryY=0;entryDx=0;entryDy=0;" edge="1" parent="WIyWlLk6GJQsqaUBKTNV-1">
          <mxGeometry x="0.057" y="20" relative="1" as="geometry">
            <mxPoint y="-2" as="offset" />
            <mxPoint x="319.63" y="900" as="sourcePoint" />
            <mxPoint x="319.88" y="940" as="targetPoint" />
          </mxGeometry>
        </mxCell>
        <mxCell id="O7lvhPyS7myMmypCgbb_-28" value="Vozi unazad" style="rounded=1;whiteSpace=wrap;html=1;fontSize=12;glass=0;strokeWidth=1;shadow=0;" vertex="1" parent="WIyWlLk6GJQsqaUBKTNV-1">
          <mxGeometry x="260" y="940" width="120" height="40" as="geometry" />
        </mxCell>
        <mxCell id="O7lvhPyS7myMmypCgbb_-29" value="No" style="rounded=0;html=1;jettySize=auto;orthogonalLoop=1;fontSize=11;endArrow=block;endFill=0;endSize=8;strokeWidth=1;shadow=0;labelBackgroundColor=none;edgeStyle=orthogonalEdgeStyle;entryX=0.5;entryY=0;entryDx=0;entryDy=0;" edge="1" parent="WIyWlLk6GJQsqaUBKTNV-1">
          <mxGeometry x="0.057" y="20" relative="1" as="geometry">
            <mxPoint y="-2" as="offset" />
            <mxPoint x="319.65" y="980" as="sourcePoint" />
            <mxPoint x="319.9" y="1020" as="targetPoint" />
          </mxGeometry>
        </mxCell>
        <mxCell id="O7lvhPyS7myMmypCgbb_-30" value="Distanca desno&lt;br&gt;&amp;gt; 20cm" style="rhombus;whiteSpace=wrap;html=1;shadow=0;fontFamily=Helvetica;fontSize=12;align=center;strokeWidth=1;spacing=6;spacingTop=-4;" vertex="1" parent="WIyWlLk6GJQsqaUBKTNV-1">
          <mxGeometry x="255" y="1020" width="130" height="100" as="geometry" />
        </mxCell>
        <mxCell id="O7lvhPyS7myMmypCgbb_-33" value="No" style="rounded=0;html=1;jettySize=auto;orthogonalLoop=1;fontSize=11;endArrow=block;endFill=0;endSize=8;strokeWidth=1;shadow=0;labelBackgroundColor=none;edgeStyle=orthogonalEdgeStyle;" edge="1" parent="WIyWlLk6GJQsqaUBKTNV-1">
          <mxGeometry x="0.057" y="20" relative="1" as="geometry">
            <mxPoint y="-2" as="offset" />
            <mxPoint x="319.63" y="1120" as="sourcePoint" />
            <mxPoint x="320" y="910" as="targetPoint" />
            <Array as="points">
              <mxPoint x="320" y="1140" />
              <mxPoint x="440" y="1140" />
              <mxPoint x="440" y="910" />
            </Array>
          </mxGeometry>
        </mxCell>
        <mxCell id="O7lvhPyS7myMmypCgbb_-34" value="Yes" style="edgeStyle=orthogonalEdgeStyle;rounded=0;html=1;jettySize=auto;orthogonalLoop=1;fontSize=11;endArrow=block;endFill=0;endSize=8;strokeWidth=1;shadow=0;labelBackgroundColor=none;entryX=0.5;entryY=1;entryDx=0;entryDy=0;exitX=0;exitY=0.5;exitDx=0;exitDy=0;" edge="1" parent="WIyWlLk6GJQsqaUBKTNV-1" source="O7lvhPyS7myMmypCgbb_-30" target="O7lvhPyS7myMmypCgbb_-19">
          <mxGeometry x="0.0159" y="10" relative="1" as="geometry">
            <mxPoint as="offset" />
            <mxPoint x="240" y="1069.43" as="sourcePoint" />
            <mxPoint x="220" y="1069.6200000000001" as="targetPoint" />
            <Array as="points">
              <mxPoint x="255" y="1069" />
              <mxPoint x="160" y="1069" />
            </Array>
          </mxGeometry>
        </mxCell>
      </root>
    </mxGraphModel>
  </diagram>
</mxfile>
